<svg xmlns="http://www.w3.org/2000/svg" style="width: 0px; height: 0px; position: absolute; overflow: hidden; display: none;">
         <symbol id="shape_qPAHqFttJq" viewBox="0 0 100 100">
            <g>
               <path d="m87.5 46.875c-1.707 0-3.125 1.418-3.125 3.125 0 9-3.5 17.168-9.168 23.293-1.918-7-7.168-12.75-14.125-15.75 2.043-1.625 3.75-3.707 4.918-6.168 0.75-1.543 0.082031-3.418-1.5-4.168-1.543-0.75-3.418-0.082031-4.168 1.5-1.875 4-5.957 6.543-10.375 6.543-6.332 0-11.457-5.125-11.457-11.457s5.125-11.457 11.457-11.457c1.707 0 3.125-1.418 3.125-3.125 0-1.707-1.418-3.125-3.125-3.125-9.75 0-17.707 7.957-17.707 17.707 0 5.582 2.625 10.5 6.668 13.75-6.957 3-12.25 8.793-14.168 15.793-5.668-6.125-9.168-14.293-9.168-23.293 0.042969-19 15.461-34.418 34.418-34.418 1.707 0 3.125-1.418 3.125-3.125s-1.418-3.125-3.125-3.125c-22.418 0-40.625 18.207-40.625 40.625s18.207 40.625 40.625 40.625 40.625-18.207 40.625-40.625c0-1.707-1.418-3.125-3.125-3.125zm-37.5 37.5c-7.332 0-14.082-2.332-19.668-6.25 0.625-9.293 9.168-16.668 19.668-16.668s19.082 7.418 19.668 16.668c-5.582 3.918-12.375 6.25-19.668 6.25z"></path>
               <path d="m72.918 44.793c9.75 0 17.707-7.957 17.707-17.707s-7.957-17.707-17.707-17.707-17.707 7.957-17.707 17.707 7.957 17.707 17.707 17.707zm0-29.168c6.332 0 11.457 5.125 11.457 11.457s-5.125 11.457-11.457 11.457-11.457-5.125-11.457-11.457 5.125-11.457 11.457-11.457z"></path>
               <path d="m70.832 34.375c0.79297 0 1.582-0.29297 2.207-0.91797l8.332-8.332c1.207-1.207 1.207-3.207 0-4.418-1.207-1.207-3.207-1.207-4.418 0l-6.125 6.125-1.957-1.957c-1.207-1.207-3.207-1.207-4.418 0-1.207 1.207-1.207 3.207 0 4.418l4.168 4.168c0.625 0.625 1.418 0.91797 2.207 0.91797z"></path>
            </g>
         </symbol>
         <symbol id="shape_gFxNLGjWpI" viewBox="0 0 24 24">
            <path d="M12,2C15.31,2 18,4.66 18,7.95C18,12.41 12,19 12,19C12,19 6,12.41 6,7.95C6,4.66 8.69,2 12,2M12,6A2,2 0 0,0 10,8A2,2 0 0,0 12,10A2,2 0 0,0 14,8A2,2 0 0,0 12,6M20,19C20,21.21 16.42,23 12,23C7.58,23 4,21.21 4,19C4,17.71 5.22,16.56 7.11,15.83L7.75,16.74C6.67,17.19 6,17.81 6,18.5C6,19.88 8.69,21 12,21C15.31,21 18,19.88 18,18.5C18,17.81 17.33,17.19 16.25,16.74L16.89,15.83C18.78,16.56 20,17.71 20,19Z"></path>
         </symbol>
         <symbol id="shape_FvgkprhcsT" viewBox="0 0 1792 1896.0833">
            <path d="M896 1664q-26 0-44-18l-624-602q-10-8-27.5-26T145 952.5 77 855 23.5 734 0 596q0-220 127-344t351-124q62 0 126.5 21.5t120 58T820 276t76 68q36-36 76-68t95.5-68.5 120-58T1314 128q224 0 351 124t127 344q0 221-229 450l-623 600q-18 18-44 18z"></path>
         </symbol>
      </svg>