<svg xmlns="http://www.w3.org/2000/svg" xmlns:xlink="http://www.w3.org/1999/xlink" version="1.1" x="0px" y="0px" viewBox="0 0 64 64" enable-background="new 0 0 64 64" xml:space="preserve" preserveAspectRatio="none" width="100%" height="100%" class="" fill="rgba(255, 255, 255, 1)">
                                                <g>
                                                   <g>
                                                      <path d="M52,7H12c-2.757,0-5,2.243-5,5v40c0,2.757,2.243,5,5,5h40c2.757,0,5-2.243,5-5V12C57,9.243,54.757,7,52,7z M55,52    c0,1.654-1.346,3-3,3H12c-1.654,0-3-1.346-3-3V12c0-1.654,1.346-3,3-3h40c1.654,0,3,1.346,3,3V52z"></path>
                                                      <path d="M49.879,23.293c-0.375-0.375-1.039-0.375-1.414,0L31.494,40.264c-0.11,0.109-0.192,0.243-0.242,0.391l-1.414,4.242    c-0.12,0.359-0.026,0.756,0.242,1.023c0.19,0.19,0.446,0.293,0.707,0.293c0.106,0,0.212-0.017,0.316-0.052l4.242-1.414    c0.147-0.049,0.281-0.132,0.391-0.241l16.971-16.971C52.895,27.348,53,27.093,53,26.828s-0.105-0.52-0.293-0.707L49.879,23.293z     M34.489,42.925l-2.121,0.707l0.707-2.121l16.097-16.097l1.414,1.414L34.489,42.925z"></path>
                                                      <path d="M16,17h32c0.553,0,1-0.448,1-1s-0.447-1-1-1H16c-0.552,0-1,0.448-1,1S15.448,17,16,17z"></path>
                                                      <path d="M16,23h28c0.553,0,1-0.448,1-1s-0.447-1-1-1H16c-0.552,0-1,0.448-1,1S15.448,23,16,23z"></path>
                                                      <path d="M16,29h22c0.553,0,1-0.448,1-1s-0.447-1-1-1H16c-0.552,0-1,0.448-1,1S15.448,29,16,29z"></path>
                                                      <path d="M16,35h16c0.552,0,1-0.447,1-1s-0.448-1-1-1H16c-0.552,0-1,0.447-1,1S15.448,35,16,35z"></path>
                                                      <path d="M28,39H16c-0.552,0-1,0.447-1,1s0.448,1,1,1h12c0.552,0,1-0.447,1-1S28.552,39,28,39z"></path>
                                                      <path d="M26,45H16c-0.552,0-1,0.447-1,1s0.448,1,1,1h10c0.552,0,1-0.447,1-1S26.552,45,26,45z"></path>
                                                   </g>
                                                </g>
                                             </svg>